<?xml version="1.0" encoding="utf-8"?>
<!-- Designed by Vexels.com - 2019 All Rights Reserved - https://vexels.com/terms-and-conditions/  -->
<svg width="100px" viewBox="0 0 1000 1200" version="1.1" id="Capa_1" xmlns="http://www.w3.org/2000/svg" xmlns:xlink="http://www.w3.org/1999/xlink" xml:space="preserve">
<g>
	<path fill="#2D333F" d="M648.381,335.642c7.941,0,14.457,0.881,19.862,2.488c15.549,18.26,24.277,44.296,29.138,68.942
		c1.026,8.767,2.565,17.739,5.433,26.535c8.39,25.73,32.442,46.043,61.557,46.043h116.003c12.272-1.757,20.191-13.19,23.704-34.273
		l34.273-236.506c11.132-81.224-2.852-157.854-91.228-157.854l-0.17,0.108c-1.6-0.083-3.215-0.139-4.863-0.139h-92.853
		c-33.011,0-60.116,16.267-72.92,41.359c-28.143-45.553-83.215-43.462-132.672-41.568l-5.732,0.214
		c-75.404,2.771-146.272,34.823-194.43,87.943c-40.524,44.695-69.107,100.002-78.421,151.738
		c-8.65,48.062-16.516,139.651,27.988,213.054c10.219,16.857,23.292,31.702,39.962,45.381c15.65,12.839,33.023,23.432,50.467,33.304
		c21.792,15.591,46.047,27.946,69.849,41.421c1.493,1.066,2.995,2.123,4.462,3.219c24.288,18.147,49.62,41.269,53.328,75.175
		c0.325,2.961,1.939,5.63,4.411,7.293c0.159,0.107,0.339,0.167,0.503,0.264c5.862,4.517,29.685,18.966,36.929,23.132
		c41.04-11.688,86.118-8.058,125.045,9.299c17.85,16.908,23.432,38.644,15.595,62.467c-11.461,34.823-40.264,52.676-85.611,53.063
		c-16.296,0.144-34.363-0.252-50.785-5.223c-24.918-9.175-40.56-30.549-49.964-61.266c-17.539-57.281-27.353-60.911-35.627-65.922
		c-4.743-2.873-12.167-3.508-18.538-3.633c-4.375-0.606-8.577-0.592-12.128-0.57c-11.007,0.048-22.335-0.418-34.315-0.92
		c-23.627-0.988-48.059-2.012-70.928,1.253c-17.131,2.45-27.982,16.795-32.283,42.838l-34.273,236.478
		c-0.003,0.019-0.004,0.039-0.007,0.058l-0.607,1.622C255.9,1098.106,296.731,1150,377.183,1150h100.682
		c25.803,0,44.496-11.835,54.032-31.846c0.008,0.018,0.01,0.038,0.019,0.056c11.72,23.405,45.047,31.134,66.381,31.789
		c0,0,89.627,0,89.629,0c153.235,0,242.5-139.017,242.5-280.14c0-96.172-21.903-163.315-65.404-214.753
		c-1.523-1.801-2.952-3.349-4.319-4.725c-0.4-0.483-0.78-0.975-1.186-1.456c-17.636-20.853-40.129-39.581-70.786-58.939
		c-8.627-5.45-19.106-10.177-30.2-15.183c-15.488-6.988-31.501-14.215-39.889-22.6c-6.337-6.338-11.973-12.254-16.952-17.933
		c-2.621-7.699-3.983-15.722-3.732-24.352c-5.385-8.93-17.152-30.011-23.639-37.73c-0.295-0.404-0.648-0.76-1.003-1.12
		c-0.168-0.177-0.336-0.353-0.494-0.505c-0.102-0.09-0.177-0.204-0.284-0.291c-0.04-0.032-0.088-0.05-0.128-0.081
		c-0.504-0.437-0.948-0.725-1.318-0.836c-2.212-1.24-4.806-1.662-7.3-1.058c-53.32,12.889-88.002,4.482-114.892-5.436
		c-9.976-3.68-21.94-10.741-32.506-19.432c-0.319-0.476-0.646-0.958-0.961-1.431c-16.78-25.17-0.629-55.976,9.047-69.139
		C556.555,329.227,600.414,335.641,648.381,335.642z"/>
	<path fill="#CE3838" d="M600.33,296.461c5.359,0.082,10.784,0.167,16.259,0.167c51.643,0,86.941,41.117,99.389,115.778
		c2.867,17.213,8.639,26.706,17.156,28.228h114.895c8.498-1.521,14.263-11.015,17.131-28.23l34.219-236.134
		c4.072-42.931-2.111-74.794-17.893-92.142c-9.533-10.484-22.786-15.801-39.398-15.801h-92.85c-35.887,0-61.992,22.64-63.477,55.055
		c-0.158,3.539-2.867,6.437-6.389,6.847c-3.511,0.429-6.818-1.803-7.778-5.21c-17.292-61.115-70.722-59.077-127.284-56.915
		l-5.757,0.22c-70.761,2.599-137.182,32.579-182.221,82.256c-38.405,42.356-65.45,94.535-74.204,143.167
		c-13.978,77.681-4.592,150.937,25.753,200.992c9.189,15.158,21.011,28.558,36.135,40.961
		c19.341,15.872,41.162,27.923,64.264,40.676c20.077,11.086,40.837,22.552,59.893,36.782c25.38,18.968,51.81,43.058,58.925,78.962
		c50.565-11.972,105.691-2.292,149.026,26.517c33.395,22.199,45.771,55.535,33.951,91.465
		c-13.843,42.059-49.089,64.53-101.935,64.984c-23.484,0.158-50.571-0.655-73.97-13.411
		c-29.743-16.219-51.841-49.959-65.681-100.293c-2.393-8.69-5.015-16.781-10.812-20.292c-4.103-2.484-9.711-2.673-16.64-2.619
		c-11.371,0.056-23.481-0.452-35.131-0.94c-22.837-0.954-46.451-1.947-67.744,1.095c-8.783,1.259-14.704,10.778-17.599,28.298
		l-34.23,236.196c-3.841,40.535,3.167,72.889,19.741,91.118c10.098,11.111,23.328,16.744,39.322,16.744h100.679
		c32.142,0,52.287-20.58,53.887-55.058c0.164-3.539,2.873-6.438,6.392-6.844c0.279-0.031,0.556-0.048,0.83-0.048
		c3.2,0,6.062,2.122,6.948,5.269c10.547,37.383,27.751,55.925,52.6,56.687l89.407-0.006c152.814,0,235.276-140.611,235.276-272.913
		c0-63.034-3.483-128.698-45.133-177.948c-16.465-19.459-37.69-37.089-66.807-55.473c-7.606-4.801-17.548-9.288-28.072-14.04
		c-16.908-7.628-34.389-15.516-45.02-26.142c-23.297-23.303-44.351-46.837-47.153-77.371c-53.45,11.125-90.093,1.71-116.334-7.967
		c-24.028-8.865-69.415-40.143-70.614-75.593c-0.979-28.913,4.199-52.617,14.591-66.748
		C517.462,295.172,557.715,295.792,600.33,296.461z M792.4,391.906c-15.564,0-28.67-10.419-32.79-24.654
		c-3.977-5.584-6.34-12.398-6.34-19.776c0-18.865,15.293-34.158,34.158-34.158c15.564,0,28.67,10.419,32.79,24.654
		c3.977,5.584,6.34,12.398,6.34,19.776C826.558,376.613,811.265,391.906,792.4,391.906z M779.711,153.513
		c17.87,0,32.994,11.718,38.134,27.886c4.328,6.393,6.857,14.103,6.857,22.405c0,22.102-17.917,40.019-40.019,40.019
		c-17.87,0-32.994-11.718-38.134-27.886c-4.328-6.393-6.857-14.103-6.857-22.405C739.692,171.43,757.609,153.513,779.711,153.513z
		 M586.082,147.314c15.564,0,28.671,10.419,32.79,24.655c3.977,5.584,6.34,12.397,6.34,19.775c0,18.865-15.294,34.158-34.159,34.158
		c-15.564,0-28.671-10.42-32.79-24.656c-3.977-5.584-6.339-12.397-6.339-19.774C551.924,162.607,567.217,147.314,586.082,147.314z
		 M401.71,791.742c15.563,0,28.671,10.419,32.79,24.655c3.977,5.584,6.34,12.397,6.34,19.775c0,18.865-15.294,34.158-34.159,34.158
		c-15.564,0-28.671-10.42-32.791-24.656c-3.977-5.584-6.339-12.396-6.339-19.774C367.552,807.035,382.845,791.742,401.71,791.742z
		 M409.638,1030.218c-17.87,0-32.994-11.718-38.134-27.885c-4.327-6.393-6.857-14.103-6.857-22.405
		c0-22.102,17.917-40.019,40.019-40.019c17.87,0,32.994,11.719,38.134,27.886c4.328,6.393,6.857,14.103,6.857,22.405
		C449.657,1012.301,431.739,1030.218,409.638,1030.218z M591.893,1024.403c-15.564,0-28.671-10.419-32.79-24.655
		c-3.977-5.584-6.34-12.397-6.34-19.775c0-18.865,15.294-34.158,34.159-34.158c15.563,0,28.671,10.42,32.791,24.656
		c3.977,5.584,6.339,12.396,6.339,19.774C626.05,1009.11,610.758,1024.403,591.893,1024.403z M742.04,989.705
		c-15.564,0-28.671-10.42-32.791-24.656c-3.977-5.584-6.339-12.397-6.339-19.774c0-18.865,15.293-34.158,34.158-34.158
		c15.564,0,28.671,10.419,32.79,24.655c3.977,5.584,6.34,12.397,6.34,19.775C776.199,974.413,760.905,989.705,742.04,989.705z
		 M798.687,770.971c15.564,0,28.671,10.419,32.79,24.655c3.977,5.584,6.34,12.397,6.34,19.775c0,18.865-15.294,34.158-34.158,34.158
		c-15.564,0-28.671-10.419-32.79-24.655c-3.977-5.584-6.34-12.397-6.34-19.776C764.529,786.264,779.822,770.971,798.687,770.971z
		 M734.178,631.297c15.564,0,28.671,10.419,32.79,24.655c3.977,5.584,6.34,12.397,6.34,19.775c0,18.865-15.294,34.158-34.159,34.158
		c-15.564,0-28.671-10.419-32.79-24.656c-3.977-5.584-6.339-12.397-6.339-19.774C700.02,646.59,715.313,631.297,734.178,631.297z
		 M591.461,544.684c17.871,0,32.995,11.719,38.135,27.888c4.327,6.393,6.856,14.102,6.856,22.403
		c0,22.102-17.917,40.019-40.018,40.019c-17.87,0-32.995-11.718-38.134-27.886c-4.328-6.393-6.857-14.103-6.857-22.404
		C551.442,562.601,569.359,544.684,591.461,544.684z M378.119,410.562c-15.564,0-28.671-10.419-32.79-24.655
		c-3.977-5.584-6.34-12.397-6.34-19.776c0-18.865,15.293-34.158,34.158-34.158c15.564,0,28.67,10.419,32.79,24.654
		c3.977,5.584,6.34,12.398,6.34,19.776C412.277,395.269,396.984,410.562,378.119,410.562z M479.562,487.996
		c3.977,5.584,6.34,12.397,6.34,19.775c0,18.865-15.293,34.158-34.158,34.158c-15.564,0-28.671-10.419-32.791-24.655
		c-3.977-5.584-6.34-12.397-6.34-19.775c0-18.865,15.294-34.158,34.159-34.158C462.335,463.341,475.442,473.76,479.562,487.996z
		 M446.586,269.23c-15.564,0-28.671-10.419-32.79-24.655c-3.977-5.584-6.34-12.397-6.34-19.775
		c0-18.865,15.294-34.158,34.159-34.158c15.563,0,28.671,10.419,32.79,24.656c3.977,5.584,6.339,12.397,6.339,19.774
		C480.744,253.937,465.451,269.23,446.586,269.23z"/>
	<path fill="#EBE1CC" d="M373.147,400.29c-18.865,0-34.158-15.293-34.158-34.158c0-18.865,15.293-34.158,34.158-34.158
		c18.865,0,34.158,15.293,34.158,34.158C407.305,384.997,392.012,400.29,373.147,400.29z M446.772,463.341
		c-18.865,0-34.159,15.293-34.159,34.158c0,18.865,15.294,34.158,34.159,34.158c18.865,0,34.158-15.293,34.158-34.158
		C480.929,478.634,465.637,463.341,446.772,463.341z M734.178,699.613c18.865,0,34.158-15.293,34.158-34.158
		c0-18.865-15.293-34.158-34.158-34.158s-34.158,15.293-34.158,34.158C700.02,684.32,715.313,699.613,734.178,699.613z
		 M737.068,911.118c-18.865,0-34.158,15.293-34.158,34.158s15.293,34.158,34.158,34.158s34.158-15.293,34.158-34.158
		S755.933,911.118,737.068,911.118z M586.921,945.815c-18.865,0-34.159,15.293-34.159,34.158c0,18.865,15.294,34.158,34.159,34.158
		c18.864,0,34.158-15.293,34.158-34.158C621.078,961.108,605.785,945.815,586.921,945.815z M798.687,770.971
		c-18.865,0-34.158,15.293-34.158,34.158c0,18.865,15.293,34.158,34.158,34.158c18.865,0,34.158-15.293,34.158-34.158
		C832.844,786.264,817.552,770.971,798.687,770.971z M404.666,939.909c-22.102,0-40.019,17.917-40.019,40.019
		c0,22.101,17.917,40.018,40.019,40.018c22.101,0,40.018-17.917,40.018-40.018C444.684,957.826,426.767,939.909,404.666,939.909z
		 M591.461,544.684c-22.101,0-40.019,17.917-40.019,40.019c0,22.102,17.917,40.018,40.019,40.018s40.019-17.917,40.019-40.018
		C631.48,562.601,613.562,544.684,591.461,544.684z M586.082,215.63c18.865,0,34.158-15.293,34.158-34.158
		c0-18.865-15.293-34.158-34.158-34.158s-34.158,15.293-34.158,34.158C551.924,200.337,567.217,215.63,586.082,215.63z
		 M441.614,258.958c18.864,0,34.158-15.293,34.158-34.158c0-18.865-15.294-34.158-34.158-34.158
		c-18.865,0-34.159,15.293-34.159,34.158C407.456,243.665,422.749,258.958,441.614,258.958z M787.427,313.318
		c-18.865,0-34.158,15.293-34.158,34.158c0,18.865,15.293,34.158,34.158,34.158c18.865,0,34.158-15.293,34.158-34.158
		C821.585,328.611,806.292,313.318,787.427,313.318z M367.552,825.9c0,18.865,15.293,34.158,34.158,34.158
		c18.864,0,34.158-15.293,34.158-34.158c0-18.865-15.294-34.158-34.158-34.158C382.845,791.742,367.552,807.035,367.552,825.9z
		 M779.711,233.55c22.101,0,40.018-17.917,40.018-40.018c0-22.102-17.917-40.019-40.018-40.019
		c-22.102,0-40.019,17.917-40.019,40.019C739.692,215.633,757.609,233.55,779.711,233.55z"/>
	<g>
		<path fill="#FFF1D9" d="M385.952,360.098c0-9.86-7.992-17.852-17.853-17.852c-9.859,0-17.852,7.993-17.852,17.852
			s7.992,17.852,17.852,17.852C377.96,377.951,385.952,369.958,385.952,360.098z"/>
		<circle fill="#FFF1D9" cx="441.725" cy="491.466" r="17.852"/>
		<circle fill="#FFF1D9" cx="729.131" cy="659.422" r="17.852"/>
		<path fill="#FFF1D9" d="M732.021,921.389c-9.859,0-17.853,7.993-17.853,17.852c0,9.86,7.993,17.853,17.853,17.853
			s17.853-7.992,17.853-17.853C749.874,929.382,741.881,921.389,732.021,921.389z"/>
		<circle fill="#FFF1D9" cx="581.874" cy="973.939" r="17.852"/>
		<path fill="#FFF1D9" d="M793.64,781.243c-9.859,0-17.852,7.993-17.852,17.852c0,9.86,7.992,17.852,17.852,17.852
			s17.853-7.993,17.853-17.852C811.492,789.236,803.499,781.243,793.64,781.243z"/>
		<path fill="#FFF1D9" d="M398.379,954.495c-9.86,0-17.853,7.993-17.853,17.853c0,9.859,7.992,17.853,17.853,17.853
			c9.859,0,17.852-7.993,17.852-17.853C416.231,962.488,408.239,954.495,398.379,954.495z"/>
		<circle fill="#FFF1D9" cx="585.174" cy="577.123" r="17.852"/>
		<circle fill="#FFF1D9" cx="581.035" cy="175.438" r="17.852"/>
		<circle fill="#FFF1D9" cx="436.567" cy="218.766" r="17.852"/>
		<path fill="#FFF1D9" d="M800.233,341.442c0-9.86-7.992-17.852-17.853-17.852c-9.859,0-17.852,7.993-17.852,17.852
			c0,9.86,7.992,17.852,17.852,17.852C792.241,359.295,800.233,351.302,800.233,341.442z"/>
		<circle fill="#FFF1D9" cx="396.663" cy="819.867" r="17.852"/>
		<path fill="#FFF1D9" d="M791.276,185.952c0-9.86-7.992-17.852-17.852-17.852c-9.86,0-17.853,7.993-17.853,17.852
			c0,9.86,7.992,17.852,17.853,17.852C783.284,203.804,791.276,195.811,791.276,185.952z"/>
	</g>
	<g>
		<path fill="#9E1C1C" d="M542.896,479.128c-18.139-6.74-33.917-20.249-46.637-30.455c6.497,19.613,38.511,42.646,54.414,48.513
			c23.791,8.774,69.646,21.12,115.311,14.35c-2.975-7.191-6.016-16.404-6.754-24.441C605.78,498.22,569.113,488.869,542.896,479.128
			z"/>
		<path fill="#9E1C1C" d="M676.266,321.44c21.109,21.109,34.063,57.079,39.713,90.966c2.867,17.213,8.639,26.706,17.156,28.228
			h7.528c-0.645-2.454-1.384-13.831-1.865-16.721C730.786,375.861,703.373,331.062,676.266,321.44z"/>
		<path fill="#9E1C1C" d="M341.439,533.506c-4.949-5.903-9.397-12.051-13.33-18.538c-30.344-50.055-39.731-123.31-25.753-200.991
			c8.754-48.632,35.8-100.812,74.204-143.167c45.039-49.676,111.46-79.657,182.221-82.256l5.757-0.22
			c36.526-1.396,71.729-2.714,96.754,12.966c-23.337-36.755-69.03-35.029-116.984-33.196l-5.757,0.22
			c-70.761,2.599-137.182,32.579-182.221,82.256c-38.405,42.356-65.45,94.535-74.204,143.167
			c-13.978,77.681-4.592,150.937,25.753,200.992C316.533,509.012,327.558,521.714,341.439,533.506z"/>
		<path fill="#9E1C1C" d="M811.526,169.314c2.745,3.604,4.915,7.669,6.319,12.085c4.328,6.393,6.857,14.103,6.857,22.405
			c0,22.102-17.917,40.019-40.019,40.019c-17.87,0-32.994-11.718-38.134-27.886c-1.497-2.212-2.762-4.591-3.799-7.088
			c-0.021,0.582-0.087,1.152-0.087,1.739c0,25.848,20.955,46.803,46.803,46.803c25.848,0,46.802-20.954,46.802-46.803
			C836.268,192.719,826.248,177.2,811.526,169.314z"/>
		<path fill="#9E1C1C" d="M382.47,419.754c23.088,0,41.805-18.716,41.805-41.804c0-20.182-14.303-37.021-33.325-40.941
			c7.167,4.4,12.596,11.357,14.987,19.618c3.977,5.584,6.34,12.398,6.34,19.776c0,18.865-15.293,34.158-34.158,34.158
			c-15.564,0-28.671-10.419-32.79-24.655c-1.959-2.75-3.521-5.801-4.607-9.068c-0.01,0.373-0.056,0.736-0.056,1.111
			C340.666,401.038,359.382,419.754,382.47,419.754z"/>
		<path fill="#9E1C1C" d="M595.405,235.095c23.088,0,41.804-18.716,41.804-41.804c0-20.182-14.302-37.021-33.324-40.94
			c7.167,4.4,12.597,11.358,14.987,19.619c3.977,5.584,6.34,12.397,6.34,19.775c0,18.865-15.294,34.158-34.159,34.158
			c-15.564,0-28.671-10.42-32.79-24.656c-1.959-2.75-3.52-5.8-4.607-9.066c-0.01,0.373-0.056,0.736-0.056,1.111
			C553.601,216.378,572.317,235.095,595.405,235.095z"/>
		<path fill="#9E1C1C" d="M601.216,648.562c25.849,0,46.803-20.954,46.803-46.803c0-17.869-10.02-33.388-24.743-41.274
			c2.746,3.604,4.916,7.671,6.32,12.087c4.327,6.393,6.856,14.102,6.856,22.403c0,22.102-17.917,40.019-40.018,40.019
			c-17.87,0-32.995-11.718-38.134-27.886c-1.497-2.212-2.762-4.59-3.799-7.086c-0.021,0.582-0.087,1.151-0.087,1.738
			C554.413,627.607,575.367,648.562,601.216,648.562z"/>
		<path fill="#9E1C1C" d="M628.369,895.315c52.846-0.454,88.092-22.925,101.935-64.984c11.257-34.219,0.522-66.063-29.371-88.197
			c13.905,19.537,17.312,43.13,9.141,67.968c-13.843,42.059-49.089,64.53-101.935,64.984c-23.484,0.158-50.571-0.655-73.97-13.411
			c-4.067-2.218-7.976-4.794-11.756-7.664c9.418,12.05,20.078,21.4,31.985,27.893C577.798,894.661,604.885,895.473,628.369,895.315z
			"/>
		<path fill="#9E1C1C" d="M785.305,677.274c0-20.182-14.303-37.021-33.325-40.941c7.168,4.4,12.598,11.358,14.988,19.619
			c3.977,5.584,6.34,12.397,6.34,19.775c0,18.865-15.294,34.158-34.159,34.158c-15.564,0-28.671-10.419-32.79-24.656
			c-1.959-2.75-3.52-5.8-4.607-9.066c-0.01,0.373-0.056,0.736-0.056,1.111c0,23.088,18.716,41.804,41.804,41.804
			C766.589,719.078,785.305,700.362,785.305,677.274z"/>
		<path fill="#9E1C1C" d="M838.555,359.295c0-20.182-14.303-37.021-33.325-40.941c7.168,4.4,12.597,11.357,14.988,19.618
			c3.977,5.584,6.34,12.398,6.34,19.776c0,18.865-15.293,34.158-34.158,34.158c-15.564,0-28.67-10.419-32.79-24.654
			c-1.959-2.75-3.521-5.801-4.607-9.068c-0.01,0.373-0.056,0.736-0.056,1.111c0,23.088,18.716,41.804,41.804,41.804
			S838.555,382.382,838.555,359.295z"/>
		<path fill="#9E1C1C" d="M816.49,776.007c7.167,4.4,12.597,11.358,14.987,19.619c3.977,5.584,6.34,12.397,6.34,19.775
			c0,18.865-15.294,34.158-34.158,34.158c-15.564,0-28.671-10.419-32.79-24.655c-1.959-2.75-3.521-5.801-4.607-9.068
			c-0.01,0.373-0.056,0.736-0.056,1.111c0,23.088,18.716,41.804,41.804,41.804s41.804-18.716,41.804-41.804
			C849.814,796.766,835.511,779.927,816.49,776.007z"/>
		<path fill="#9E1C1C" d="M513.81,1053.397c9.828,34.454,22.739,46.777,33.571,52.547c-5.117-8.367-8.973-17.713-14.98-29.373
			C525.318,1062.822,518.231,1058.299,513.81,1053.397z"/>
		<path fill="#9E1C1C" d="M604.722,950.851c7.168,4.401,12.599,11.358,14.989,19.62c3.977,5.584,6.339,12.396,6.339,19.774
			c0,18.865-15.293,34.158-34.158,34.158c-15.564,0-28.671-10.419-32.79-24.655c-1.959-2.75-3.52-5.8-4.606-9.066
			c-0.01,0.373-0.056,0.735-0.056,1.11c0,23.088,18.716,41.804,41.804,41.804c23.087,0,41.804-18.716,41.804-41.804
			C638.048,971.609,623.744,954.77,604.722,950.851z"/>
		<path fill="#9E1C1C" d="M542.668,689.142c-1.13-19.073-27.623-48.018-52.262-57.666c22.418,20.088,33.111,42.574,36.691,60.644
			C531.263,691.134,538.45,689.836,542.668,689.142z"/>
		<path fill="#9E1C1C" d="M881.551,84.068c-4.182-4.476-9.247-8.13-14.84-10.629c-11.787-5.267-25.144-5.34-38.054-5.322
			c-21.575,0.03-43.15,0.059-64.725,0.089c-15.663,0.022-31.889,0.161-46.116,6.709c-17.248,7.938-29.701,25.445-31.541,44.343
			c-0.238,2.441-0.326,4.961-1.33,7.199c-0.963,2.147-2.83,3.571-5.069,4.129c2.901,5.629,8.354,10.841,12.324,15.84
			c1.458,1.836,3.106,3.793,5.402,4.271c3.003,0.625,5.975-1.639,7.326-4.392c1.35-2.753,1.511-5.911,1.908-8.953
			c2.031-15.576,11.24-30.083,24.511-38.487c11.693-7.405,25.839-9.998,39.672-10.477c17.589-0.609,35.173,0.484,52.762,0.459
			c17.076-0.024,34.259-1.995,51.176,1.271c2.389,0.461,12.528,1.706,13.698,3.938C886.751,90.424,884.348,87.062,881.551,84.068z"
			/>
		<path fill="#9E1C1C" d="M754.871,916.154c7.168,4.4,12.598,11.358,14.988,19.619c3.977,5.584,6.34,12.397,6.34,19.775
			c0,18.865-15.294,34.158-34.159,34.158c-15.564,0-28.671-10.42-32.791-24.656c-1.958-2.75-3.519-5.8-4.606-9.066
			c-0.01,0.372-0.056,0.736-0.056,1.111c0,23.088,18.716,41.804,41.804,41.804s41.804-18.716,41.804-41.804
			C788.195,936.912,773.892,920.073,754.871,916.154z"/>
		<path fill="#9E1C1C" d="M457.677,741.091c-4.103-2.484-9.711-2.673-16.64-2.619c-11.371,0.056-23.481-0.452-35.131-0.94
			c-22.837-0.954-46.451-1.947-67.744,1.095c-8.783,1.259-14.704,10.778-17.599,28.298l-34.23,236.196
			c-3.841,40.535,3.167,72.889,19.741,91.118c3.883,4.273,8.241,7.718,13.03,10.362c-11.315-18.981-15.768-47.212-12.542-81.25
			l34.23-236.196c2.896-17.52,8.817-27.04,17.599-28.298c21.294-3.042,44.907-2.049,67.744-1.095
			c11.65,0.488,23.76,0.996,35.131,0.94c2.32-0.018,4.477,0,6.494,0.114C465.539,751.134,462.896,744.252,457.677,741.091z"/>
		<path fill="#9E1C1C" d="M436.48,955.71c2.745,3.604,4.916,7.67,6.319,12.085c4.328,6.393,6.857,14.103,6.857,22.405
			c0,22.101-17.917,40.018-40.019,40.018c-17.87,0-32.994-11.718-38.134-27.885c-1.497-2.212-2.762-4.59-3.799-7.087
			c-0.021,0.581-0.087,1.151-0.087,1.739c0,25.849,20.955,46.803,46.803,46.803c25.849,0,46.803-20.954,46.803-46.803
			C461.223,979.115,451.202,963.596,436.48,955.71z"/>
		<path fill="#9E1C1C" d="M464.574,468.377c7.168,4.4,12.597,11.358,14.988,19.619c3.977,5.584,6.34,12.397,6.34,19.775
			c0,18.865-15.293,34.158-34.158,34.158c-15.564,0-28.671-10.419-32.791-24.655c-1.959-2.75-3.52-5.8-4.606-9.066
			c-0.01,0.372-0.056,0.735-0.056,1.11c0,23.088,18.716,41.804,41.804,41.804s41.804-18.716,41.804-41.804
			C497.899,489.136,483.596,472.297,464.574,468.377z"/>
		<path fill="#9E1C1C" d="M452.837,837.719c0-20.182-14.303-37.021-33.325-40.941c7.168,4.4,12.598,11.358,14.988,19.619
			c3.977,5.584,6.34,12.397,6.34,19.775c0,18.865-15.294,34.158-34.159,34.158c-15.564,0-28.671-10.42-32.791-24.656
			c-1.958-2.75-3.519-5.8-4.606-9.066c-0.01,0.373-0.056,0.736-0.056,1.111c0,23.088,18.716,41.804,41.804,41.804
			C434.121,879.523,452.837,860.807,452.837,837.719z"/>
		<path fill="#9E1C1C" d="M492.741,236.619c0-20.182-14.303-37.022-33.325-40.941c7.168,4.4,12.597,11.358,14.988,19.62
			c3.977,5.584,6.339,12.397,6.339,19.774c0,18.865-15.293,34.158-34.158,34.158c-15.564,0-28.671-10.419-32.79-24.655
			c-1.959-2.75-3.52-5.8-4.606-9.066c-0.01,0.372-0.056,0.735-0.056,1.11c0,23.088,18.716,41.804,41.804,41.804
			C474.025,278.423,492.741,259.706,492.741,236.619z"/>
	</g>
</g>
</svg>
