<?xml version="1.0" encoding="utf-8"?>
<!-- Designed by Vexels.com - 2019 All Rights Reserved - https://vexels.com/terms-and-conditions/  -->
<svg version="1.1" id="Capa_1" xmlns="http://www.w3.org/2000/svg" xmlns:xlink="http://www.w3.org/1999/xlink" width="100px" viewBox="200 0 1000 1200" xml:space="preserve">
<g>
	<path fill="#2D333F" d="M868.367,56.248c-9.573-2.553-18.678-4.311-28.583-5.112c-19.096-1.543-47.354-2.21-72.058,9.708
		c-12.267,5.924-24.344,16-32.246,28.864c-9.343-13.376-23.277-23.514-37.092-29.107c-24.502-9.926-51.331-9.739-75.038-9.569
		l-86.031,0.603c-16.507,0.116-35.215,0.246-52.681,6.507c-16.75,6.009-31.202,17.605-41.173,32.235
		c-5.219-9.295-12.983-17.644-22.694-23.863c-19.507-12.49-42.356-15.188-60.082-16.141c-16.883-0.911-38.88-0.801-59.301,8.211
		c-48.141,21.247-44.807,66.788-42.37,100.041c3.357,45.877,8.024,92.269,13.871,137.886c6.142,47.92,13.75,96.282,22.609,143.739
		c0.151,0.81,0.318,1.685,0.492,2.574c0.117,0.716,0.214,1.421,0.35,2.149c9.256,49.364,55.534,52.31,74.501,52.31
		c21.885,0,43.77-0.161,65.655-0.242c6.366-0.024,13.034-0.121,18.623-3.169c9.884-5.391,13.051-17.86,14.833-28.975
		c2.474-15.424,4.552-31.659,7.648-47.457c0.244,13.897,0.071,27.816-1.091,41.477c-4.809,56.513-29.28,101.221-65.463,119.587
		c-3.246,1.647-5.358,4.905-5.542,8.539c-0.181,3.634,1.599,7.087,4.664,9.049c31.272,20.025,54.433,57.733,63.535,103.457
		c8.446,42.418,5.256,86.829,2.168,129.777c-0.926,12.85-1.882,26.141-5.564,38.133c-4.523,14.723-13.588,28.705-21.584,41.042
		c-29.545,45.589-62.79,99.286-49.425,156.072c0.064,0.4,0.09,0.787,0.163,1.19c4.862,26.552,29.917,58.764,54.226,70.306
		c16.637,7.899,51.985,14.311,70.398,13.916c20.194-0.433,40.8-3.03,58.878-12.039c12.666-6.313,23.956-16.213,30.88-28.396
		c14.525,22.168,56.718,34.12,84.009,38.066c28.181,4.075,60.16,2.807,80.642-16.974c12.376-11.954,18.612-29.134,20.568-46.229
		c5.516-48.203-19.696-94.213-46.312-134.779c-5.879-8.961-11.868-17.885-16.898-27.362c-3.188-6.005-5.972-12.193-8.025-18.687
		c-4.171-13.194-5.209-27.142-6.221-40.942c-3.249-44.344-6.463-89.327,2.166-132.945c8.63-43.618,30.714-86.461,68.145-110.459
		c-9.916-14.564-18.238-31.217-22.6-37.021c-11.974-15.931-30.371-18.193-39.313-38.088c-7.532-16.758-7.722-35.189-9.211-53.175
		c-2.888-34.881,0.314-69.96,1.227-104.963c1.793,9.11,3.275,18.442,4.738,27.705c1.773,11.214,3.956,22.347,5.91,33.517
		c5.235,29.918,19.447,42.633,27.534,45.764c6.845,2.65,39.036,4.171,46.377,4.177c20.405,0.016,40.81,0.033,61.215,0.05
		c10.176,0.008,21.294-0.311,29.051-6.896c8.117-6.89,10.023-18.459,11.4-29.017c10.803-82.796,21.605-165.591,32.407-248.386
		C946.765,166.07,936.634,74.453,868.367,56.248z"/>
	<path fill="#CE3838" d="M838.383,68.468c-17.08-1.378-42.2-2.046-63.076,8.034c-23.724,11.455-22.457,39.921-41.776,52.489
		c-9.663-21.342-15.943-41.856-41.669-52.272c-21.31-8.633-46.31-8.443-68.392-8.299c-40.85,0.286-93.87-7.918-132.953,6.088
		c-27.658,9.912-34.101,35.496-50.5,55.586c-11.207-13.696-8.36-35.958-28.624-48.94c-12.547-8.035-28.473-12.173-51.647-13.417
		c-63.952-3.423-87.779,29.618-83.382,89.615c3.334,45.566,7.967,91.638,13.775,136.946c6.102,47.592,13.654,95.626,22.456,142.759
		c1.302,6.982,2.805,13.54,6.781,17.027c4.353,3.807,11.698,4.025,19.558,4.067l65.655-0.241c5.175-0.023,11.037-0.045,15.144-2.265
		c18.592-10.052,16.224-61.744,20.608-79.662c6.95-28.396,17.357-56.685,41.808-74.69c2.287-1.684,5.344-1.876,7.823-0.495
		c2.485,1.387,3.926,4.087,3.694,6.92c-2.024,24.76-0.923,50.27,0.147,74.939c1.101,25.433,2.239,51.736,0.025,77.732
		c-4.88,57.334-28.813,104.083-64.801,127.742c30.737,23.704,52.48,61.588,61.724,108.017c8.904,44.721,5.627,90.319,2.457,134.417
		c-2.409,33.523-11.541,59.062-29.9,87.394c-30.16,46.511-56.516,92.108-47.952,138.551c3.612,19.6,13.591,35.812,27.369,44.482
		c14.873,9.36,34.14,10.195,49.316,9.867c23.647-0.507,41.377-4.093,55.803-11.282c17.755-8.85,30.186-23.809,33.248-40.018
		c0.645-3.419,3.634-5.898,7.152-5.898c3.495,0.017,6.484,2.527,7.099,5.966c5.23,29.192,40.445,44.419,71.659,48.937
		c34.057,4.919,59.151-0.125,74.571-15.018c12.649-12.219,16.993-29.495,18.406-41.841c5.23-45.744-18.621-89.504-45.172-129.983
		c0,0-1.701-2.585-1.709-2.598c-18.775-28.536-28.117-53.792-30.604-87.834c-3.241-44.247-6.595-89.993,2.284-134.877
		c9.221-46.61,31.001-84.647,61.834-108.453c-36.163-23.673-60.15-70.623-64.925-128.291c-2.137-25.804-0.991-51.917,0.119-77.166
		c1.104-25.04,2.239-50.935,0.093-76.06c-0.229-2.737,1.098-5.369,3.439-6.798c2.346-1.432,5.29-1.421,7.619,0.04
		c37.038,23.147,44.439,69.977,50.972,111.302c3.636,22.959,2.356,47.019,30.768,47.041l61.217,0.048c0.099,0,0.204,0,0.303,0
		c9.501,0,18.471-0.433,24.052-5.171c5.932-5.038,7.597-14.435,8.904-24.431c0,0,32.076-245.854,32.407-248.391
		C908.103,130.127,897.623,73.305,838.383,68.468z M364.438,149.483c17.922,0,33.09,11.752,38.245,27.967
		c4.34,6.411,6.876,14.144,6.876,22.469c0,22.165-17.969,40.134-40.134,40.134c-17.922,0-33.09-11.752-38.245-27.967
		c-4.34-6.411-6.876-14.144-6.876-22.469C324.304,167.452,342.273,149.483,364.438,149.483z M375.414,388.563
		c-15.609,0-28.753-10.449-32.885-24.725c-3.989-5.6-6.358-12.433-6.358-19.833c0-18.919,15.337-34.256,34.256-34.256
		c15.609,0,28.753,10.449,32.885,24.725c3.989,5.6,6.358,12.433,6.358,19.833C409.67,373.226,394.333,388.563,375.414,388.563z
		 M584.609,142.465c17.922,0,33.089,11.752,38.244,27.967c4.34,6.411,6.877,14.144,6.877,22.469
		c0,22.165-17.969,40.134-40.134,40.134c-17.922,0-33.089-11.752-38.244-27.966c-4.34-6.412-6.877-14.144-6.877-22.47
		C544.475,160.434,562.443,142.465,584.609,142.465z M627.158,396.202c0,18.919-15.337,34.256-34.256,34.256
		c-15.608,0-28.753-10.449-32.885-24.726c-3.989-5.6-6.358-12.433-6.358-19.833c0-18.919,15.337-34.256,34.256-34.256
		c15.609,0,28.755,10.45,32.886,24.727C624.788,381.971,627.158,388.804,627.158,396.202z M584.609,544.68
		c17.922,0,33.089,11.752,38.244,27.967c4.34,6.411,6.877,14.144,6.877,22.469c0,22.165-17.969,40.134-40.134,40.134
		c-17.922,0-33.089-11.752-38.244-27.966c-4.34-6.412-6.877-14.144-6.877-22.47C544.475,562.649,562.443,544.68,584.609,544.68z
		 M624.26,784.297c0,18.919-15.337,34.256-34.256,34.256c-15.608,0-28.753-10.449-32.885-24.726
		c-3.989-5.6-6.358-12.433-6.358-19.833c0-18.919,15.337-34.256,34.256-34.256c15.609,0,28.755,10.45,32.886,24.727
		C621.89,770.066,624.26,776.898,624.26,784.297z M592.493,1022.919c-17.922,0-33.089-11.752-38.244-27.966
		c-4.34-6.411-6.876-14.144-6.876-22.469c0-22.165,17.968-40.134,40.134-40.134c17.922,0,33.089,11.752,38.244,27.967
		c4.34,6.411,6.877,14.144,6.877,22.469C632.628,1004.951,614.659,1022.919,592.493,1022.919z M811.75,388.563
		c-15.609,0-28.753-10.449-32.885-24.726c-3.989-5.6-6.358-12.433-6.358-19.832c0-18.919,15.338-34.256,34.257-34.256
		c15.608,0,28.753,10.449,32.885,24.727c3.989,5.6,6.358,12.433,6.358,19.831C846.006,373.226,830.669,388.563,811.75,388.563z
		 M820.259,240.053c-17.922,0-33.09-11.753-38.245-27.968c-4.34-6.411-6.876-14.143-6.876-22.468
		c0-22.165,17.968-40.134,40.133-40.134c17.922,0,33.09,11.753,38.245,27.968c4.34,6.411,6.876,14.143,6.876,22.468
		C860.393,222.084,842.424,240.053,820.259,240.053z"/>
	<path fill="#EBE1CC" d="M622.172,385.901c0,18.919-15.338,34.256-34.257,34.256c-18.919,0-34.256-15.337-34.256-34.256
		c0-18.919,15.337-34.256,34.256-34.256C606.834,351.644,622.172,366.982,622.172,385.901z M585.016,739.739
		c-18.919,0-34.256,15.337-34.256,34.256c0,18.919,15.337,34.256,34.256,34.256c18.919,0,34.257-15.337,34.257-34.256
		C619.273,755.076,603.936,739.739,585.016,739.739z M587.507,932.35c-22.166,0-40.134,17.969-40.134,40.134
		c0,22.165,17.968,40.134,40.134,40.134c22.165,0,40.133-17.969,40.133-40.134C627.641,950.319,609.672,932.35,587.507,932.35z
		 M584.609,624.948c22.165,0,40.133-17.969,40.133-40.134c0-22.165-17.968-40.134-40.133-40.134
		c-22.166,0-40.134,17.969-40.134,40.134C544.475,606.98,562.443,624.948,584.609,624.948z M584.609,222.733
		c22.165,0,40.133-17.969,40.133-40.134c0-22.165-17.968-40.134-40.133-40.134c-22.166,0-40.134,17.969-40.134,40.134
		C544.475,204.765,562.443,222.733,584.609,222.733z M370.426,309.749c-18.919,0-34.256,15.337-34.256,34.256
		c0,18.919,15.337,34.256,34.256,34.256s34.256-15.337,34.256-34.256C404.683,325.086,389.346,309.749,370.426,309.749z
		 M806.763,309.749c-18.919,0-34.257,15.337-34.257,34.256c0,18.919,15.338,34.256,34.257,34.256
		c18.919,0,34.256-15.337,34.256-34.256C841.02,325.086,825.682,309.749,806.763,309.749z M404.572,189.617
		c0-22.165-17.968-40.134-40.134-40.134c-22.165,0-40.134,17.969-40.134,40.134c0,22.165,17.969,40.134,40.134,40.134
		C386.604,229.751,404.572,211.782,404.572,189.617z M815.272,149.483c-22.165,0-40.133,17.969-40.133,40.134
		c0,22.165,17.968,40.134,40.133,40.134s40.134-17.969,40.134-40.134C855.406,167.452,837.437,149.483,815.272,149.483z"/>
	<g>
		<path fill="#FFF1D9" d="M582.854,361.946c-9.888,0-17.904,8.016-17.904,17.904s8.016,17.904,17.904,17.904
			c9.888,0,17.903-8.016,17.903-17.904S592.742,361.946,582.854,361.946z"/>
		<path fill="#FFF1D9" d="M579.956,785.848c9.888,0,17.903-8.016,17.903-17.904s-8.016-17.904-17.903-17.904
			c-9.889,0-17.904,8.016-17.904,17.904S570.067,785.848,579.956,785.848z"/>
		<circle fill="#FFF1D9" cx="581.202" cy="964.882" r="17.904"/>
		<circle fill="#FFF1D9" cx="578.304" cy="577.212" r="17.904"/>
		<circle fill="#FFF1D9" cx="578.304" cy="174.997" r="17.904"/>
		<path fill="#FFF1D9" d="M365.365,320.05c-9.888,0-17.903,8.016-17.903,17.904s8.016,17.904,17.903,17.904
			c9.888,0,17.904-8.016,17.904-17.904S375.254,320.05,365.365,320.05z"/>
		<circle fill="#FFF1D9" cx="801.702" cy="337.954" r="17.904"/>
		
			<ellipse transform="matrix(0.0985 -0.9951 0.9951 0.0985 141.7146 520.4702)" fill="#FFF1D9" cx="358.134" cy="182.015" rx="17.904" ry="17.904"/>
		<circle fill="#FFF1D9" cx="808.968" cy="182.015" r="17.904"/>
	</g>
	<g>
		<path fill="#9E1C1C" d="M616.515,560.527c2.753,3.614,4.93,7.692,6.337,12.12c4.34,6.411,6.877,14.144,6.877,22.469
			c0,22.165-17.969,40.134-40.134,40.134c-17.922,0-33.089-11.752-38.244-27.966c-1.502-2.218-2.77-4.604-3.81-7.108
			c-0.021,0.584-0.088,1.155-0.088,1.744c0,25.923,21.015,46.938,46.938,46.938c25.923,0,46.938-21.015,46.938-46.938
			C641.329,583.999,631.28,568.435,616.515,560.527z"/>
		<path fill="#9E1C1C" d="M753.818,149.278c19.318-12.568,18.052-41.034,41.776-52.489c20.877-10.08,45.997-9.412,63.076-8.034
			c12.444,1.016,22.712,4.349,31.147,9.408c-10.009-16.242-26.331-27.646-51.435-29.695c-17.08-1.378-42.311-2.273-63.076,8.034
			c-22.068,10.953-27.677,43.862-41.776,52.489C742.687,137.818,745.011,141.68,753.818,149.278z"/>
		<path fill="#9E1C1C" d="M388.28,314.799c7.188,4.413,12.633,11.39,15.031,19.675c3.989,5.6,6.358,12.433,6.358,19.833
			c0,18.919-15.337,34.256-34.256,34.256c-15.609,0-28.753-10.449-32.885-24.725c-1.964-2.758-3.531-5.818-4.621-9.094
			c-0.01,0.374-0.056,0.738-0.056,1.114c0,23.154,18.77,41.925,41.924,41.925c23.154,0,41.925-18.77,41.925-41.925
			C421.702,335.617,407.357,318.73,388.28,314.799z"/>
		<path fill="#9E1C1C" d="M636.292,785.848c0-20.24-14.343-37.128-33.421-41.059c7.188,4.413,12.634,11.391,15.031,19.676
			c3.988,5.6,6.358,12.432,6.358,19.831c0,18.919-15.337,34.256-34.256,34.256c-15.608,0-28.753-10.449-32.885-24.726
			c-1.964-2.758-3.531-5.818-4.62-9.094c-0.01,0.374-0.057,0.738-0.057,1.114c0,23.154,18.771,41.924,41.924,41.924
			C617.521,827.773,636.292,809.002,636.292,785.848z"/>
		<path fill="#9E1C1C" d="M452.213,610.774c18.527,22.538,31.841,51.69,38.548,85.375c8.904,44.721,5.627,90.319,2.457,134.417
			c-2.409,33.523-11.541,59.062-29.9,87.394c-30.16,46.511-56.516,92.108-47.952,138.551c3.612,19.6,13.591,35.812,27.369,44.482
			c0.765,0.482,1.548,0.926,2.336,1.364c-4.429-7.42-7.672-16.087-9.417-25.557c-8.565-46.443,17.792-92.04,47.952-138.551
			c18.359-28.332,27.49-53.871,29.9-87.394c3.17-44.098,6.448-89.696-2.457-134.417C502.099,671.49,481.41,634.592,452.213,610.774z
			"/>
		<path fill="#9E1C1C" d="M429.036,588.133c7.517,5.798,14.488,12.455,20.879,19.867c35.652-23.783,59.357-70.307,64.21-127.321
			c2.213-25.997,1.076-52.299-0.025-77.732c-1.07-24.669-2.171-50.179-0.147-74.939c0.232-2.833-1.209-5.533-3.694-6.92
			c-2.479-1.381-13.376-10.466-16.594-13.368c-2.189,19.597-0.603,57.654,0.147,74.939c1.101,25.433,2.239,51.736,0.025,77.732
			C488.957,517.725,465.024,564.474,429.036,588.133z"/>
		<path fill="#9E1C1C" d="M421.159,206.722c0-17.92-10.049-33.484-24.814-41.392c2.753,3.614,4.93,7.692,6.338,12.12
			c4.34,6.411,6.876,14.144,6.876,22.469c0,22.165-17.969,40.134-40.134,40.134c-17.922,0-33.09-11.752-38.245-27.967
			c-1.501-2.218-2.77-4.603-3.809-7.106c-0.021,0.583-0.088,1.154-0.088,1.743c0,25.923,21.015,46.938,46.938,46.938
			S421.159,232.645,421.159,206.722z"/>
		<path fill="#9E1C1C" d="M310.425,314.586c-5.808-45.308-10.441-91.38-13.775-136.946c-4.396-59.997,19.43-93.038,83.382-89.615
			c19.92,1.069,34.476,4.284,46.142,10.267c-3.048-6.372-7.356-12.381-14.783-17.139c-12.547-8.035-28.473-12.173-51.647-13.417
			c-63.952-3.423-87.779,29.618-83.382,89.615c3.334,45.566,7.967,91.638,13.775,136.946c6.102,47.592,13.654,95.626,22.456,142.759
			c1.302,6.982,2.805,13.54,6.781,17.027c3.233,2.827,8.119,3.672,13.638,3.938c-0.043-0.227-0.089-0.45-0.132-0.678
			C324.079,410.212,316.528,362.178,310.425,314.586z"/>
		<path fill="#9E1C1C" d="M616.515,158.312c2.753,3.614,4.93,7.692,6.337,12.12c4.34,6.411,6.877,14.144,6.877,22.469
			c0,22.165-17.969,40.134-40.134,40.134c-17.922,0-33.089-11.752-38.244-27.966c-1.502-2.218-2.77-4.604-3.81-7.108
			c-0.021,0.584-0.088,1.155-0.088,1.744c0,25.923,21.015,46.938,46.938,46.938c25.923,0,46.938-21.015,46.938-46.938
			C641.329,181.784,631.28,166.22,616.515,158.312z"/>
		<path fill="#9E1C1C" d="M716.299,321.986c17.472,24.787,22.8,58.399,27.638,89.001c3.342,21.104,2.549,43.121,24.461,46.562
			c-2.057-7.886-2.731-17.164-4.173-26.275C757.876,391.111,750.699,345.753,716.299,321.986z"/>
		<path fill="#9E1C1C" d="M824.617,314.799c7.188,4.413,12.633,11.391,15.031,19.676c3.989,5.6,6.358,12.433,6.358,19.831
			c0,18.919-15.337,34.256-34.256,34.256c-15.609,0-28.753-10.449-32.885-24.726c-1.964-2.757-3.53-5.816-4.619-9.092
			c-0.01,0.373-0.057,0.737-0.057,1.113c0,23.154,18.77,41.925,41.924,41.925s41.924-18.77,41.924-41.925
			C858.038,335.617,843.694,318.729,824.617,314.799z"/>
		<path fill="#9E1C1C" d="M847.179,165.329c2.754,3.615,4.93,7.693,6.339,12.122c4.34,6.411,6.876,14.143,6.876,22.468
			c0,22.165-17.968,40.134-40.133,40.134c-17.922,0-33.09-11.753-38.245-27.968c-1.501-2.218-2.769-4.602-3.809-7.106
			c-0.021,0.583-0.088,1.155-0.088,1.744c0,25.923,21.015,46.938,46.938,46.938c25.923,0,46.938-21.015,46.938-46.938
			C871.993,188.802,861.944,173.238,847.179,165.329z"/>
		<path fill="#9E1C1C" d="M613.846,1076.321l-0.008-0.008c-0.219-0.238-0.44-0.473-0.688-0.68l-18.799-18.564
			c4.349,20.292,13.891,26.171,13.891,26.171l0.049-0.061c3.481,3.46,7.44,6.599,11.838,9.352
			c-2.135-3.876-3.675-8.077-4.489-12.616C615.393,1078.527,614.745,1077.303,613.846,1076.321z"/>
		<path fill="#9E1C1C" d="M597.265,439.678c23.155,0,41.925-18.77,41.925-41.924c0-20.24-14.343-37.128-33.421-41.059
			c7.188,4.413,12.634,11.391,15.031,19.676c3.988,5.6,6.358,12.432,6.358,19.831c0,18.919-15.337,34.256-34.256,34.256
			c-15.608,0-28.753-10.449-32.885-24.726c-1.964-2.758-3.531-5.818-4.62-9.094c-0.01,0.374-0.057,0.738-0.057,1.114
			C555.34,420.908,574.111,439.678,597.265,439.678z"/>
		<path fill="#9E1C1C" d="M691.862,76.719c-21.31-8.633-46.31-8.443-68.392-8.299c-40.85,0.286-93.87-7.918-132.953,6.088
			c-23.263,8.337-38.706,37.67-50.5,55.586c3.78,6.313,12.301,13.149,20.288,20.288c16.4-20.09,22.842-45.674,50.5-55.586
			c39.083-14.006,92.103-5.802,132.953-6.088c22.082-0.144,47.083-0.334,68.392,8.299c2.873,1.163,5.469,2.47,7.888,3.872
			C713.899,90.869,705.706,82.324,691.862,76.719z"/>
		<path fill="#9E1C1C" d="M619.413,948.197c2.753,3.614,4.93,7.692,6.337,12.12c4.34,6.411,6.877,14.144,6.877,22.469
			c0,22.165-17.969,40.133-40.134,40.133c-17.922,0-33.089-11.752-38.244-27.966c-1.501-2.218-2.769-4.604-3.81-7.108
			c-0.021,0.583-0.088,1.155-0.088,1.743c0,25.923,21.015,46.938,46.938,46.938s46.938-21.015,46.938-46.938
			C644.227,971.669,634.178,956.105,619.413,948.197z"/>
	</g>
</g>
</svg>
